<?xml version="1.0" encoding="utf-8" standalone="no"?>
<!DOCTYPE svg PUBLIC "-//W3C//DTD SVG 1.1//EN"
  "http://www.w3.org/Graphics/SVG/1.1/DTD/svg11.dtd">
<!-- Created with matplotlib (https://matplotlib.org/) -->
<svg height="144pt" version="1.1" viewBox="0 0 576 144" width="576pt" xmlns="http://www.w3.org/2000/svg" xmlns:xlink="http://www.w3.org/1999/xlink">
 <defs>
  <style type="text/css">
*{stroke-linecap:butt;stroke-linejoin:round;}
  </style>
 </defs>
 <g id="figure_1">
  <g id="patch_1">
   <path d="M 0 144 
L 576 144 
L 576 0 
L 0 0 
z
" style="fill:none;"/>
  </g>
  <g id="axes_1">
   <g id="patch_2">
    <path d="M 24.8 98.2 
L 565.2 98.2 
L 565.2 10.8 
L 24.8 10.8 
z
" style="fill:none;"/>
   </g>
   <g id="matplotlib.axis_1">
    <g id="xtick_1">
     <g id="line2d_1">
      <defs>
       <path d="M 0 0 
L 0 3.5 
" id="m04538eeba9" style="stroke:#000000;stroke-width:0.8;"/>
      </defs>
      <g>
       <use style="stroke:#000000;stroke-width:0.8;" x="295" xlink:href="#m04538eeba9" y="98.2"/>
      </g>
     </g>
     <g id="text_1">
      <!-- 0 -->
      <defs>
       <path d="M 31.78125 66.40625 
Q 24.171875 66.40625 20.328125 58.90625 
Q 16.5 51.421875 16.5 36.375 
Q 16.5 21.390625 20.328125 13.890625 
Q 24.171875 6.390625 31.78125 6.390625 
Q 39.453125 6.390625 43.28125 13.890625 
Q 47.125 21.390625 47.125 36.375 
Q 47.125 51.421875 43.28125 58.90625 
Q 39.453125 66.40625 31.78125 66.40625 
z
M 31.78125 74.21875 
Q 44.046875 74.21875 50.515625 64.515625 
Q 56.984375 54.828125 56.984375 36.375 
Q 56.984375 17.96875 50.515625 8.265625 
Q 44.046875 -1.421875 31.78125 -1.421875 
Q 19.53125 -1.421875 13.0625 8.265625 
Q 6.59375 17.96875 6.59375 36.375 
Q 6.59375 54.828125 13.0625 64.515625 
Q 19.53125 74.21875 31.78125 74.21875 
z
" id="DejaVuSans-48"/>
      </defs>
      <g transform="translate(291.81875 112.798438)scale(0.1 -0.1)">
       <use xlink:href="#DejaVuSans-48"/>
      </g>
     </g>
    </g>
    <g id="text_2">
     <!-- Image coordinate $X$  -->
     <defs>
      <path d="M 9.8125 72.90625 
L 19.671875 72.90625 
L 19.671875 0 
L 9.8125 0 
z
" id="DejaVuSans-73"/>
      <path d="M 52 44.1875 
Q 55.375 50.25 60.0625 53.125 
Q 64.75 56 71.09375 56 
Q 79.640625 56 84.28125 50.015625 
Q 88.921875 44.046875 88.921875 33.015625 
L 88.921875 0 
L 79.890625 0 
L 79.890625 32.71875 
Q 79.890625 40.578125 77.09375 44.375 
Q 74.3125 48.1875 68.609375 48.1875 
Q 61.625 48.1875 57.5625 43.546875 
Q 53.515625 38.921875 53.515625 30.90625 
L 53.515625 0 
L 44.484375 0 
L 44.484375 32.71875 
Q 44.484375 40.625 41.703125 44.40625 
Q 38.921875 48.1875 33.109375 48.1875 
Q 26.21875 48.1875 22.15625 43.53125 
Q 18.109375 38.875 18.109375 30.90625 
L 18.109375 0 
L 9.078125 0 
L 9.078125 54.6875 
L 18.109375 54.6875 
L 18.109375 46.1875 
Q 21.1875 51.21875 25.484375 53.609375 
Q 29.78125 56 35.6875 56 
Q 41.65625 56 45.828125 52.96875 
Q 50 49.953125 52 44.1875 
z
" id="DejaVuSans-109"/>
      <path d="M 34.28125 27.484375 
Q 23.390625 27.484375 19.1875 25 
Q 14.984375 22.515625 14.984375 16.5 
Q 14.984375 11.71875 18.140625 8.90625 
Q 21.296875 6.109375 26.703125 6.109375 
Q 34.1875 6.109375 38.703125 11.40625 
Q 43.21875 16.703125 43.21875 25.484375 
L 43.21875 27.484375 
z
M 52.203125 31.203125 
L 52.203125 0 
L 43.21875 0 
L 43.21875 8.296875 
Q 40.140625 3.328125 35.546875 0.953125 
Q 30.953125 -1.421875 24.3125 -1.421875 
Q 15.921875 -1.421875 10.953125 3.296875 
Q 6 8.015625 6 15.921875 
Q 6 25.140625 12.171875 29.828125 
Q 18.359375 34.515625 30.609375 34.515625 
L 43.21875 34.515625 
L 43.21875 35.40625 
Q 43.21875 41.609375 39.140625 45 
Q 35.0625 48.390625 27.6875 48.390625 
Q 23 48.390625 18.546875 47.265625 
Q 14.109375 46.140625 10.015625 43.890625 
L 10.015625 52.203125 
Q 14.9375 54.109375 19.578125 55.046875 
Q 24.21875 56 28.609375 56 
Q 40.484375 56 46.34375 49.84375 
Q 52.203125 43.703125 52.203125 31.203125 
z
" id="DejaVuSans-97"/>
      <path d="M 45.40625 27.984375 
Q 45.40625 37.75 41.375 43.109375 
Q 37.359375 48.484375 30.078125 48.484375 
Q 22.859375 48.484375 18.828125 43.109375 
Q 14.796875 37.75 14.796875 27.984375 
Q 14.796875 18.265625 18.828125 12.890625 
Q 22.859375 7.515625 30.078125 7.515625 
Q 37.359375 7.515625 41.375 12.890625 
Q 45.40625 18.265625 45.40625 27.984375 
z
M 54.390625 6.78125 
Q 54.390625 -7.171875 48.1875 -13.984375 
Q 42 -20.796875 29.203125 -20.796875 
Q 24.46875 -20.796875 20.265625 -20.09375 
Q 16.0625 -19.390625 12.109375 -17.921875 
L 12.109375 -9.1875 
Q 16.0625 -11.328125 19.921875 -12.34375 
Q 23.78125 -13.375 27.78125 -13.375 
Q 36.625 -13.375 41.015625 -8.765625 
Q 45.40625 -4.15625 45.40625 5.171875 
L 45.40625 9.625 
Q 42.625 4.78125 38.28125 2.390625 
Q 33.9375 0 27.875 0 
Q 17.828125 0 11.671875 7.65625 
Q 5.515625 15.328125 5.515625 27.984375 
Q 5.515625 40.671875 11.671875 48.328125 
Q 17.828125 56 27.875 56 
Q 33.9375 56 38.28125 53.609375 
Q 42.625 51.21875 45.40625 46.390625 
L 45.40625 54.6875 
L 54.390625 54.6875 
z
" id="DejaVuSans-103"/>
      <path d="M 56.203125 29.59375 
L 56.203125 25.203125 
L 14.890625 25.203125 
Q 15.484375 15.921875 20.484375 11.0625 
Q 25.484375 6.203125 34.421875 6.203125 
Q 39.59375 6.203125 44.453125 7.46875 
Q 49.3125 8.734375 54.109375 11.28125 
L 54.109375 2.78125 
Q 49.265625 0.734375 44.1875 -0.34375 
Q 39.109375 -1.421875 33.890625 -1.421875 
Q 20.796875 -1.421875 13.15625 6.1875 
Q 5.515625 13.8125 5.515625 26.8125 
Q 5.515625 40.234375 12.765625 48.109375 
Q 20.015625 56 32.328125 56 
Q 43.359375 56 49.78125 48.890625 
Q 56.203125 41.796875 56.203125 29.59375 
z
M 47.21875 32.234375 
Q 47.125 39.59375 43.09375 43.984375 
Q 39.0625 48.390625 32.421875 48.390625 
Q 24.90625 48.390625 20.390625 44.140625 
Q 15.875 39.890625 15.1875 32.171875 
z
" id="DejaVuSans-101"/>
      <path id="DejaVuSans-32"/>
      <path d="M 48.78125 52.59375 
L 48.78125 44.1875 
Q 44.96875 46.296875 41.140625 47.34375 
Q 37.3125 48.390625 33.40625 48.390625 
Q 24.65625 48.390625 19.8125 42.84375 
Q 14.984375 37.3125 14.984375 27.296875 
Q 14.984375 17.28125 19.8125 11.734375 
Q 24.65625 6.203125 33.40625 6.203125 
Q 37.3125 6.203125 41.140625 7.25 
Q 44.96875 8.296875 48.78125 10.40625 
L 48.78125 2.09375 
Q 45.015625 0.34375 40.984375 -0.53125 
Q 36.96875 -1.421875 32.421875 -1.421875 
Q 20.0625 -1.421875 12.78125 6.34375 
Q 5.515625 14.109375 5.515625 27.296875 
Q 5.515625 40.671875 12.859375 48.328125 
Q 20.21875 56 33.015625 56 
Q 37.15625 56 41.109375 55.140625 
Q 45.0625 54.296875 48.78125 52.59375 
z
" id="DejaVuSans-99"/>
      <path d="M 30.609375 48.390625 
Q 23.390625 48.390625 19.1875 42.75 
Q 14.984375 37.109375 14.984375 27.296875 
Q 14.984375 17.484375 19.15625 11.84375 
Q 23.34375 6.203125 30.609375 6.203125 
Q 37.796875 6.203125 41.984375 11.859375 
Q 46.1875 17.53125 46.1875 27.296875 
Q 46.1875 37.015625 41.984375 42.703125 
Q 37.796875 48.390625 30.609375 48.390625 
z
M 30.609375 56 
Q 42.328125 56 49.015625 48.375 
Q 55.71875 40.765625 55.71875 27.296875 
Q 55.71875 13.875 49.015625 6.21875 
Q 42.328125 -1.421875 30.609375 -1.421875 
Q 18.84375 -1.421875 12.171875 6.21875 
Q 5.515625 13.875 5.515625 27.296875 
Q 5.515625 40.765625 12.171875 48.375 
Q 18.84375 56 30.609375 56 
z
" id="DejaVuSans-111"/>
      <path d="M 41.109375 46.296875 
Q 39.59375 47.171875 37.8125 47.578125 
Q 36.03125 48 33.890625 48 
Q 26.265625 48 22.1875 43.046875 
Q 18.109375 38.09375 18.109375 28.8125 
L 18.109375 0 
L 9.078125 0 
L 9.078125 54.6875 
L 18.109375 54.6875 
L 18.109375 46.1875 
Q 20.953125 51.171875 25.484375 53.578125 
Q 30.03125 56 36.53125 56 
Q 37.453125 56 38.578125 55.875 
Q 39.703125 55.765625 41.0625 55.515625 
z
" id="DejaVuSans-114"/>
      <path d="M 45.40625 46.390625 
L 45.40625 75.984375 
L 54.390625 75.984375 
L 54.390625 0 
L 45.40625 0 
L 45.40625 8.203125 
Q 42.578125 3.328125 38.25 0.953125 
Q 33.9375 -1.421875 27.875 -1.421875 
Q 17.96875 -1.421875 11.734375 6.484375 
Q 5.515625 14.40625 5.515625 27.296875 
Q 5.515625 40.1875 11.734375 48.09375 
Q 17.96875 56 27.875 56 
Q 33.9375 56 38.25 53.625 
Q 42.578125 51.265625 45.40625 46.390625 
z
M 14.796875 27.296875 
Q 14.796875 17.390625 18.875 11.75 
Q 22.953125 6.109375 30.078125 6.109375 
Q 37.203125 6.109375 41.296875 11.75 
Q 45.40625 17.390625 45.40625 27.296875 
Q 45.40625 37.203125 41.296875 42.84375 
Q 37.203125 48.484375 30.078125 48.484375 
Q 22.953125 48.484375 18.875 42.84375 
Q 14.796875 37.203125 14.796875 27.296875 
z
" id="DejaVuSans-100"/>
      <path d="M 9.421875 54.6875 
L 18.40625 54.6875 
L 18.40625 0 
L 9.421875 0 
z
M 9.421875 75.984375 
L 18.40625 75.984375 
L 18.40625 64.59375 
L 9.421875 64.59375 
z
" id="DejaVuSans-105"/>
      <path d="M 54.890625 33.015625 
L 54.890625 0 
L 45.90625 0 
L 45.90625 32.71875 
Q 45.90625 40.484375 42.875 44.328125 
Q 39.84375 48.1875 33.796875 48.1875 
Q 26.515625 48.1875 22.3125 43.546875 
Q 18.109375 38.921875 18.109375 30.90625 
L 18.109375 0 
L 9.078125 0 
L 9.078125 54.6875 
L 18.109375 54.6875 
L 18.109375 46.1875 
Q 21.34375 51.125 25.703125 53.5625 
Q 30.078125 56 35.796875 56 
Q 45.21875 56 50.046875 50.171875 
Q 54.890625 44.34375 54.890625 33.015625 
z
" id="DejaVuSans-110"/>
      <path d="M 18.3125 70.21875 
L 18.3125 54.6875 
L 36.8125 54.6875 
L 36.8125 47.703125 
L 18.3125 47.703125 
L 18.3125 18.015625 
Q 18.3125 11.328125 20.140625 9.421875 
Q 21.96875 7.515625 27.59375 7.515625 
L 36.8125 7.515625 
L 36.8125 0 
L 27.59375 0 
Q 17.1875 0 13.234375 3.875 
Q 9.28125 7.765625 9.28125 18.015625 
L 9.28125 47.703125 
L 2.6875 47.703125 
L 2.6875 54.6875 
L 9.28125 54.6875 
L 9.28125 70.21875 
z
" id="DejaVuSans-116"/>
      <path d="M 13.71875 72.90625 
L 23.6875 72.90625 
L 36.1875 46.578125 
L 58.796875 72.90625 
L 70.3125 72.90625 
L 40.28125 38.09375 
L 58.40625 0 
L 48.484375 0 
L 33.796875 30.71875 
L 7.171875 0 
L -4.296875 0 
L 29.78125 39.203125 
z
" id="DejaVuSans-Oblique-88"/>
     </defs>
     <g transform="translate(241.8175 126.858125)scale(0.105 -0.105)">
      <use transform="translate(0 0.015625)" xlink:href="#DejaVuSans-73"/>
      <use transform="translate(29.445312 0.015625)" xlink:href="#DejaVuSans-109"/>
      <use transform="translate(126.857422 0.015625)" xlink:href="#DejaVuSans-97"/>
      <use transform="translate(188.136719 0.015625)" xlink:href="#DejaVuSans-103"/>
      <use transform="translate(251.613281 0.015625)" xlink:href="#DejaVuSans-101"/>
      <use transform="translate(313.136719 0.015625)" xlink:href="#DejaVuSans-32"/>
      <use transform="translate(344.923828 0.015625)" xlink:href="#DejaVuSans-99"/>
      <use transform="translate(399.904297 0.015625)" xlink:href="#DejaVuSans-111"/>
      <use transform="translate(461.085938 0.015625)" xlink:href="#DejaVuSans-111"/>
      <use transform="translate(522.267578 0.015625)" xlink:href="#DejaVuSans-114"/>
      <use transform="translate(563.380859 0.015625)" xlink:href="#DejaVuSans-100"/>
      <use transform="translate(626.857422 0.015625)" xlink:href="#DejaVuSans-105"/>
      <use transform="translate(654.640625 0.015625)" xlink:href="#DejaVuSans-110"/>
      <use transform="translate(718.019531 0.015625)" xlink:href="#DejaVuSans-97"/>
      <use transform="translate(779.298828 0.015625)" xlink:href="#DejaVuSans-116"/>
      <use transform="translate(818.507812 0.015625)" xlink:href="#DejaVuSans-101"/>
      <use transform="translate(880.03125 0.015625)" xlink:href="#DejaVuSans-32"/>
      <use transform="translate(911.818359 0.015625)" xlink:href="#DejaVuSans-Oblique-88"/>
      <use transform="translate(980.324219 0.015625)" xlink:href="#DejaVuSans-32"/>
     </g>
    </g>
   </g>
   <g id="matplotlib.axis_2">
    <g id="text_3">
     <!-- Relative intensity -->
     <defs>
      <path d="M 44.390625 34.1875 
Q 47.5625 33.109375 50.5625 29.59375 
Q 53.5625 26.078125 56.59375 19.921875 
L 66.609375 0 
L 56 0 
L 46.6875 18.703125 
Q 43.0625 26.03125 39.671875 28.421875 
Q 36.28125 30.8125 30.421875 30.8125 
L 19.671875 30.8125 
L 19.671875 0 
L 9.8125 0 
L 9.8125 72.90625 
L 32.078125 72.90625 
Q 44.578125 72.90625 50.734375 67.671875 
Q 56.890625 62.453125 56.890625 51.90625 
Q 56.890625 45.015625 53.6875 40.46875 
Q 50.484375 35.9375 44.390625 34.1875 
z
M 19.671875 64.796875 
L 19.671875 38.921875 
L 32.078125 38.921875 
Q 39.203125 38.921875 42.84375 42.21875 
Q 46.484375 45.515625 46.484375 51.90625 
Q 46.484375 58.296875 42.84375 61.546875 
Q 39.203125 64.796875 32.078125 64.796875 
z
" id="DejaVuSans-82"/>
      <path d="M 9.421875 75.984375 
L 18.40625 75.984375 
L 18.40625 0 
L 9.421875 0 
z
" id="DejaVuSans-108"/>
      <path d="M 2.984375 54.6875 
L 12.5 54.6875 
L 29.59375 8.796875 
L 46.6875 54.6875 
L 56.203125 54.6875 
L 35.6875 0 
L 23.484375 0 
z
" id="DejaVuSans-118"/>
      <path d="M 44.28125 53.078125 
L 44.28125 44.578125 
Q 40.484375 46.53125 36.375 47.5 
Q 32.28125 48.484375 27.875 48.484375 
Q 21.1875 48.484375 17.84375 46.4375 
Q 14.5 44.390625 14.5 40.28125 
Q 14.5 37.15625 16.890625 35.375 
Q 19.28125 33.59375 26.515625 31.984375 
L 29.59375 31.296875 
Q 39.15625 29.25 43.1875 25.515625 
Q 47.21875 21.78125 47.21875 15.09375 
Q 47.21875 7.46875 41.1875 3.015625 
Q 35.15625 -1.421875 24.609375 -1.421875 
Q 20.21875 -1.421875 15.453125 -0.5625 
Q 10.6875 0.296875 5.421875 2 
L 5.421875 11.28125 
Q 10.40625 8.6875 15.234375 7.390625 
Q 20.0625 6.109375 24.8125 6.109375 
Q 31.15625 6.109375 34.5625 8.28125 
Q 37.984375 10.453125 37.984375 14.40625 
Q 37.984375 18.0625 35.515625 20.015625 
Q 33.0625 21.96875 24.703125 23.78125 
L 21.578125 24.515625 
Q 13.234375 26.265625 9.515625 29.90625 
Q 5.8125 33.546875 5.8125 39.890625 
Q 5.8125 47.609375 11.28125 51.796875 
Q 16.75 56 26.8125 56 
Q 31.78125 56 36.171875 55.265625 
Q 40.578125 54.546875 44.28125 53.078125 
z
" id="DejaVuSans-115"/>
      <path d="M 32.171875 -5.078125 
Q 28.375 -14.84375 24.75 -17.8125 
Q 21.140625 -20.796875 15.09375 -20.796875 
L 7.90625 -20.796875 
L 7.90625 -13.28125 
L 13.1875 -13.28125 
Q 16.890625 -13.28125 18.9375 -11.515625 
Q 21 -9.765625 23.484375 -3.21875 
L 25.09375 0.875 
L 2.984375 54.6875 
L 12.5 54.6875 
L 29.59375 11.921875 
L 46.6875 54.6875 
L 56.203125 54.6875 
z
" id="DejaVuSans-121"/>
     </defs>
     <g transform="translate(18.616328 100.334141)rotate(-90)scale(0.105 -0.105)">
      <use xlink:href="#DejaVuSans-82"/>
      <use x="69.419922" xlink:href="#DejaVuSans-101"/>
      <use x="130.943359" xlink:href="#DejaVuSans-108"/>
      <use x="158.726562" xlink:href="#DejaVuSans-97"/>
      <use x="220.005859" xlink:href="#DejaVuSans-116"/>
      <use x="259.214844" xlink:href="#DejaVuSans-105"/>
      <use x="286.998047" xlink:href="#DejaVuSans-118"/>
      <use x="346.177734" xlink:href="#DejaVuSans-101"/>
      <use x="407.701172" xlink:href="#DejaVuSans-32"/>
      <use x="439.488281" xlink:href="#DejaVuSans-105"/>
      <use x="467.271484" xlink:href="#DejaVuSans-110"/>
      <use x="530.650391" xlink:href="#DejaVuSans-116"/>
      <use x="569.859375" xlink:href="#DejaVuSans-101"/>
      <use x="631.382812" xlink:href="#DejaVuSans-110"/>
      <use x="694.761719" xlink:href="#DejaVuSans-115"/>
      <use x="746.861328" xlink:href="#DejaVuSans-105"/>
      <use x="774.644531" xlink:href="#DejaVuSans-116"/>
      <use x="813.853516" xlink:href="#DejaVuSans-121"/>
     </g>
    </g>
   </g>
   <g id="line2d_2">
    <path clip-path="url(#p03add05728)" d="M 49.363636 93.859583 
L 65.370016 93.601188 
L 76.451356 93.657895 
L 92.457735 94.021629 
L 104.770335 94.22278 
L 114.620415 94.145139 
L 124.470494 93.832009 
L 146.633174 93.010222 
L 154.020734 92.993532 
L 162.639553 93.219742 
L 177.414673 93.937501 
L 186.033493 94.209848 
L 192.189793 94.188478 
L 198.346093 93.934644 
L 204.502392 93.448848 
L 211.889952 92.634996 
L 225.433812 91.101697 
L 230.358852 90.764368 
L 235.283892 90.645228 
L 240.208931 90.779508 
L 245.133971 91.169792 
L 250.059011 91.779189 
L 266.065391 94.034155 
L 269.759171 94.222177 
L 273.452951 94.116714 
L 275.91547 93.842593 
L 278.37799 93.378313 
L 280.84051 92.702535 
L 283.30303 91.796252 
L 285.76555 90.643351 
L 288.22807 89.231138 
L 290.69059 87.550811 
L 293.15311 85.597875 
L 295.61563 83.372474 
L 298.07815 80.879643 
L 300.54067 78.129467 
L 304.23445 73.556284 
L 307.92823 68.511839 
L 311.62201 63.092622 
L 317.778309 53.556422 
L 325.165869 42.097208 
L 328.859649 36.723766 
L 332.553429 31.796549 
L 335.015949 28.832907 
L 337.478469 26.173573 
L 339.940989 23.855115 
L 342.403509 21.909754 
L 344.866029 20.36476 
L 347.328549 19.24194 
L 349.791069 18.557219 
L 351.022329 18.382438 
L 352.253589 18.320342 
L 353.484848 18.371151 
L 354.716108 18.534685 
L 357.178628 19.197193 
L 359.641148 20.298436 
L 362.103668 21.822791 
L 364.566188 23.748738 
L 367.028708 26.049268 
L 369.491228 28.692393 
L 371.953748 31.641747 
L 375.647528 36.551489 
L 379.341308 41.912538 
L 384.266348 49.492879 
L 392.885167 62.906849 
L 396.578947 68.336637 
L 400.272727 73.395257 
L 403.966507 77.985453 
L 406.429027 80.748141 
L 408.891547 83.25412 
L 411.354067 85.493054 
L 413.816587 87.459657 
L 416.279107 89.153544 
L 418.741627 90.578989 
L 421.204147 91.744584 
L 423.666667 92.662842 
L 426.129187 93.349715 
L 428.591707 93.824081 
L 431.054226 94.107173 
L 433.516746 94.222005 
L 437.210526 94.131871 
L 440.904306 93.801297 
L 445.829346 93.128167 
L 458.141946 91.318118 
L 463.066986 90.862115 
L 467.992026 90.656118 
L 472.917065 90.70785 
L 477.842105 90.990216 
L 483.998405 91.584766 
L 503.698565 93.757091 
L 509.854864 94.111264 
L 516.011164 94.227273 
L 522.167464 94.131317 
L 530.786284 93.763897 
L 540.636364 93.27571 
L 540.636364 93.27571 
" style="fill:none;stroke:#0000ff;stroke-dasharray:1.5,2.475;stroke-dashoffset:0;stroke-width:1.5;"/>
   </g>
   <g id="line2d_3">
    <path clip-path="url(#p03add05728)" d="M 49.363636 93.27571 
L 72.757576 94.223468 
L 78.913876 94.153315 
L 85.070175 93.84669 
L 91.226475 93.314928 
L 99.845295 92.31946 
L 109.695375 91.202002 
L 115.851675 90.758527 
L 120.776715 90.645411 
L 125.701754 90.786213 
L 130.626794 91.182599 
L 135.551834 91.796633 
L 151.558214 94.044264 
L 155.251994 94.223855 
L 157.714514 94.18413 
L 160.177033 93.988133 
L 162.639553 93.612183 
L 165.102073 93.034084 
L 167.564593 92.233708 
L 170.027113 91.193572 
L 172.489633 89.899382 
L 174.952153 88.340529 
L 177.414673 86.510533 
L 179.877193 84.407415 
L 182.339713 82.033985 
L 184.802233 79.39804 
L 187.264753 76.512471 
L 190.958533 71.756768 
L 194.652313 66.562498 
L 199.577352 59.138604 
L 211.889952 40.084877 
L 215.583732 34.857268 
L 218.046252 31.641747 
L 220.508772 28.692393 
L 222.971292 26.049268 
L 225.433812 23.748738 
L 227.896332 21.822791 
L 230.358852 20.298436 
L 232.821372 19.197193 
L 235.283892 18.534685 
L 236.515152 18.371151 
L 237.746411 18.320342 
L 238.977671 18.382438 
L 241.440191 18.84406 
L 243.902711 19.749441 
L 246.365231 21.085715 
L 248.827751 22.83397 
L 251.290271 24.969611 
L 253.752791 27.462821 
L 256.215311 30.279126 
L 258.677831 33.380037 
L 262.371611 38.472916 
L 266.065391 43.960689 
L 273.452951 55.490601 
L 279.60925 64.933792 
L 283.30303 70.240199 
L 286.99681 75.137131 
L 289.45933 78.129467 
L 291.92185 80.879643 
L 294.38437 83.372474 
L 296.84689 85.597875 
L 299.30941 87.550811 
L 301.77193 89.231138 
L 304.23445 90.643351 
L 306.69697 91.796252 
L 309.15949 92.702535 
L 311.62201 93.378313 
L 314.08453 93.842593 
L 316.547049 94.116714 
L 319.009569 94.223761 
L 322.703349 94.124261 
L 326.397129 93.787108 
L 331.322169 93.109335 
L 343.634769 91.303972 
L 348.559809 90.853805 
L 353.484848 90.654318 
L 358.409888 90.712274 
L 363.334928 90.999813 
L 369.491228 91.598571 
L 389.191388 93.766454 
L 395.347687 94.115905 
L 401.503987 94.227273 
L 407.660287 94.12762 
L 416.279107 93.757616 
L 431.054226 93.092819 
L 438.441786 92.976964 
L 447.060606 93.088606 
L 458.141946 93.50927 
L 474.148325 94.117696 
L 483.998405 94.22671 
L 493.848485 94.105908 
L 522.167464 93.594275 
L 533.248804 93.704511 
L 540.636364 93.859583 
L 540.636364 93.859583 
" style="fill:none;stroke:#ffa500;stroke-dasharray:1.5,2.475;stroke-dashoffset:0;stroke-width:1.5;"/>
   </g>
   <g id="line2d_4">
    <path clip-path="url(#p03add05728)" d="M 49.363636 92.90801 
L 60.444976 93.245235 
L 72.757576 93.610407 
L 80.145136 93.607068 
L 86.301435 93.395349 
L 92.457735 92.980498 
L 99.845295 92.265113 
L 114.620415 90.740889 
L 120.776715 90.390395 
L 125.701754 90.339809 
L 130.626794 90.519659 
L 135.551834 90.918143 
L 142.939394 91.7988 
L 150.326954 92.682868 
L 154.020734 92.959021 
L 157.714514 93.016877 
L 160.177033 92.891418 
L 162.639553 92.604641 
L 165.102073 92.13145 
L 167.564593 91.448079 
L 170.027113 90.532751 
L 172.489633 89.366337 
L 174.952153 87.932993 
L 177.414673 86.220751 
L 179.877193 84.222072 
L 182.339713 81.934321 
L 184.802233 79.360154 
L 187.264753 76.507817 
L 189.727273 73.391331 
L 193.421053 68.266343 
L 197.114833 62.68426 
L 202.039872 54.739061 
L 213.121212 36.554122 
L 216.814992 31.024632 
L 219.277512 27.643395 
L 221.740032 24.56609 
L 224.202552 21.840401 
L 226.665072 19.50966 
L 229.127592 17.611866 
L 231.590112 16.178797 
L 232.821372 15.644566 
L 234.052632 15.235213 
L 235.283892 14.952629 
L 236.515152 14.798185 
L 237.746411 14.772727 
L 238.977671 14.87656 
L 240.208931 15.109443 
L 241.440191 15.470582 
L 242.671451 15.958628 
L 245.133971 17.307268 
L 247.596491 19.133538 
L 250.059011 21.407021 
L 252.521531 24.089115 
L 254.984051 27.13361 
L 257.446571 30.48743 
L 261.140351 35.967577 
L 266.065391 43.76756 
L 272.221691 53.518766 
L 275.91547 58.9444 
L 278.37799 62.243651 
L 280.84051 65.216911 
L 283.30303 67.809168 
L 285.76555 69.972352 
L 288.22807 71.666275 
L 289.45933 72.327058 
L 290.69059 72.859421 
L 291.92185 73.260882 
L 293.15311 73.529568 
L 294.38437 73.664225 
L 295.61563 73.664225 
L 296.84689 73.529568 
L 298.07815 73.260882 
L 299.30941 72.859421 
L 300.54067 72.327058 
L 303.00319 70.880152 
L 305.46571 68.9471 
L 307.92823 66.563843 
L 310.39075 63.774619 
L 312.85327 60.631094 
L 315.315789 57.191353 
L 319.009569 51.616103 
L 332.553429 30.48743 
L 335.015949 27.13361 
L 337.478469 24.089115 
L 339.940989 21.407021 
L 342.403509 19.133538 
L 344.866029 17.307268 
L 347.328549 15.958628 
L 348.559809 15.470582 
L 349.791069 15.109443 
L 351.022329 14.87656 
L 352.253589 14.772727 
L 353.484848 14.798185 
L 354.716108 14.952629 
L 355.947368 15.235213 
L 357.178628 15.644566 
L 358.409888 16.178797 
L 360.872408 17.611866 
L 363.334928 19.50966 
L 365.797448 21.840401 
L 368.259968 24.56609 
L 370.722488 27.643395 
L 373.185008 31.024632 
L 376.878788 36.554122 
L 381.803828 44.498421 
L 392.885167 62.68426 
L 396.578947 68.266343 
L 400.272727 73.391331 
L 402.735247 76.507817 
L 405.197767 79.360154 
L 407.660287 81.934321 
L 410.122807 84.222072 
L 412.585327 86.220751 
L 415.047847 87.932993 
L 417.510367 89.366337 
L 419.972887 90.532751 
L 422.435407 91.448079 
L 424.897927 92.13145 
L 427.360447 92.604641 
L 429.822967 92.891418 
L 433.516746 93.027159 
L 437.210526 92.887022 
L 442.135566 92.418603 
L 458.141946 90.600104 
L 463.066986 90.362982 
L 467.992026 90.356867 
L 472.917065 90.56708 
L 479.073365 91.06774 
L 502.467305 93.32822 
L 508.623604 93.581055 
L 516.011164 93.626154 
L 524.629984 93.420619 
L 540.636364 92.90801 
L 540.636364 92.90801 
" style="fill:none;stroke:#800080;stroke-linecap:square;stroke-width:1.5;"/>
   </g>
   <g id="line2d_5">
    <path clip-path="url(#p03add05728)" d="M 335.939394 98.2 
L 335.939394 10.8 
" style="fill:none;stroke:#ff0000;stroke-dasharray:1.5,2.475;stroke-dashoffset:0;stroke-width:1.5;"/>
   </g>
   <g id="line2d_6">
    <path clip-path="url(#p03add05728)" d="M 254.060606 98.2 
L 254.060606 10.8 
" style="fill:none;stroke:#ff0000;stroke-dasharray:1.5,2.475;stroke-dashoffset:0;stroke-width:1.5;"/>
   </g>
   <g id="patch_3">
    <path d="M 24.8 98.2 
L 24.8 10.8 
" style="fill:none;stroke:#000000;stroke-linecap:square;stroke-linejoin:miter;stroke-width:0.8;"/>
   </g>
   <g id="patch_4">
    <path d="M 565.2 98.2 
L 565.2 10.8 
" style="fill:none;stroke:#000000;stroke-linecap:square;stroke-linejoin:miter;stroke-width:0.8;"/>
   </g>
   <g id="patch_5">
    <path d="M 24.8 98.2 
L 565.2 98.2 
" style="fill:none;stroke:#000000;stroke-linecap:square;stroke-linejoin:miter;stroke-width:0.8;"/>
   </g>
   <g id="patch_6">
    <path d="M 24.8 10.8 
L 565.2 10.8 
" style="fill:none;stroke:#000000;stroke-linecap:square;stroke-linejoin:miter;stroke-width:0.8;"/>
   </g>
   <g id="legend_1">
    <g id="patch_7">
     <path d="M 448.95 62.834375 
L 558.2 62.834375 
Q 560.2 62.834375 560.2 60.834375 
L 560.2 17.8 
Q 560.2 15.8 558.2 15.8 
L 448.95 15.8 
Q 446.95 15.8 446.95 17.8 
L 446.95 60.834375 
Q 446.95 62.834375 448.95 62.834375 
z
" style="fill:#ffffff;opacity:0.8;stroke:#cccccc;stroke-linejoin:miter;"/>
    </g>
    <g id="line2d_7">
     <path d="M 450.95 23.898438 
L 470.95 23.898438 
" style="fill:none;stroke:#0000ff;stroke-dasharray:1.5,2.475;stroke-dashoffset:0;stroke-width:1.5;"/>
    </g>
    <g id="line2d_8"/>
    <g id="text_4">
     <!-- Source A -->
     <defs>
      <path d="M 53.515625 70.515625 
L 53.515625 60.890625 
Q 47.90625 63.578125 42.921875 64.890625 
Q 37.9375 66.21875 33.296875 66.21875 
Q 25.25 66.21875 20.875 63.09375 
Q 16.5 59.96875 16.5 54.203125 
Q 16.5 49.359375 19.40625 46.890625 
Q 22.3125 44.4375 30.421875 42.921875 
L 36.375 41.703125 
Q 47.40625 39.59375 52.65625 34.296875 
Q 57.90625 29 57.90625 20.125 
Q 57.90625 9.515625 50.796875 4.046875 
Q 43.703125 -1.421875 29.984375 -1.421875 
Q 24.8125 -1.421875 18.96875 -0.25 
Q 13.140625 0.921875 6.890625 3.21875 
L 6.890625 13.375 
Q 12.890625 10.015625 18.65625 8.296875 
Q 24.421875 6.59375 29.984375 6.59375 
Q 38.421875 6.59375 43.015625 9.90625 
Q 47.609375 13.234375 47.609375 19.390625 
Q 47.609375 24.75 44.3125 27.78125 
Q 41.015625 30.8125 33.5 32.328125 
L 27.484375 33.5 
Q 16.453125 35.6875 11.515625 40.375 
Q 6.59375 45.0625 6.59375 53.421875 
Q 6.59375 63.09375 13.40625 68.65625 
Q 20.21875 74.21875 32.171875 74.21875 
Q 37.3125 74.21875 42.625 73.28125 
Q 47.953125 72.359375 53.515625 70.515625 
z
" id="DejaVuSans-83"/>
      <path d="M 8.5 21.578125 
L 8.5 54.6875 
L 17.484375 54.6875 
L 17.484375 21.921875 
Q 17.484375 14.15625 20.5 10.265625 
Q 23.53125 6.390625 29.59375 6.390625 
Q 36.859375 6.390625 41.078125 11.03125 
Q 45.3125 15.671875 45.3125 23.6875 
L 45.3125 54.6875 
L 54.296875 54.6875 
L 54.296875 0 
L 45.3125 0 
L 45.3125 8.40625 
Q 42.046875 3.421875 37.71875 1 
Q 33.40625 -1.421875 27.6875 -1.421875 
Q 18.265625 -1.421875 13.375 4.4375 
Q 8.5 10.296875 8.5 21.578125 
z
M 31.109375 56 
z
" id="DejaVuSans-117"/>
      <path d="M 34.1875 63.1875 
L 20.796875 26.90625 
L 47.609375 26.90625 
z
M 28.609375 72.90625 
L 39.796875 72.90625 
L 67.578125 0 
L 57.328125 0 
L 50.6875 18.703125 
L 17.828125 18.703125 
L 11.1875 0 
L 0.78125 0 
z
" id="DejaVuSans-65"/>
     </defs>
     <g transform="translate(478.95 27.398438)scale(0.1 -0.1)">
      <use xlink:href="#DejaVuSans-83"/>
      <use x="63.476562" xlink:href="#DejaVuSans-111"/>
      <use x="124.658203" xlink:href="#DejaVuSans-117"/>
      <use x="188.037109" xlink:href="#DejaVuSans-114"/>
      <use x="229.119141" xlink:href="#DejaVuSans-99"/>
      <use x="284.099609" xlink:href="#DejaVuSans-101"/>
      <use x="345.623047" xlink:href="#DejaVuSans-32"/>
      <use x="377.410156" xlink:href="#DejaVuSans-65"/>
     </g>
    </g>
    <g id="line2d_9">
     <path d="M 450.95 38.576562 
L 470.95 38.576562 
" style="fill:none;stroke:#ffa500;stroke-dasharray:1.5,2.475;stroke-dashoffset:0;stroke-width:1.5;"/>
    </g>
    <g id="line2d_10"/>
    <g id="text_5">
     <!-- Source B -->
     <defs>
      <path d="M 19.671875 34.8125 
L 19.671875 8.109375 
L 35.5 8.109375 
Q 43.453125 8.109375 47.28125 11.40625 
Q 51.125 14.703125 51.125 21.484375 
Q 51.125 28.328125 47.28125 31.5625 
Q 43.453125 34.8125 35.5 34.8125 
z
M 19.671875 64.796875 
L 19.671875 42.828125 
L 34.28125 42.828125 
Q 41.5 42.828125 45.03125 45.53125 
Q 48.578125 48.25 48.578125 53.8125 
Q 48.578125 59.328125 45.03125 62.0625 
Q 41.5 64.796875 34.28125 64.796875 
z
M 9.8125 72.90625 
L 35.015625 72.90625 
Q 46.296875 72.90625 52.390625 68.21875 
Q 58.5 63.53125 58.5 54.890625 
Q 58.5 48.1875 55.375 44.234375 
Q 52.25 40.28125 46.1875 39.3125 
Q 53.46875 37.75 57.5 32.78125 
Q 61.53125 27.828125 61.53125 20.40625 
Q 61.53125 10.640625 54.890625 5.3125 
Q 48.25 0 35.984375 0 
L 9.8125 0 
z
" id="DejaVuSans-66"/>
     </defs>
     <g transform="translate(478.95 42.076562)scale(0.1 -0.1)">
      <use xlink:href="#DejaVuSans-83"/>
      <use x="63.476562" xlink:href="#DejaVuSans-111"/>
      <use x="124.658203" xlink:href="#DejaVuSans-117"/>
      <use x="188.037109" xlink:href="#DejaVuSans-114"/>
      <use x="229.119141" xlink:href="#DejaVuSans-99"/>
      <use x="284.099609" xlink:href="#DejaVuSans-101"/>
      <use x="345.623047" xlink:href="#DejaVuSans-32"/>
      <use x="377.410156" xlink:href="#DejaVuSans-66"/>
     </g>
    </g>
    <g id="line2d_11">
     <path d="M 450.95 53.254688 
L 470.95 53.254688 
" style="fill:none;stroke:#800080;stroke-linecap:square;stroke-width:1.5;"/>
    </g>
    <g id="line2d_12"/>
    <g id="text_6">
     <!-- Signal intensity -->
     <g transform="translate(478.95 56.754688)scale(0.1 -0.1)">
      <use xlink:href="#DejaVuSans-83"/>
      <use x="63.476562" xlink:href="#DejaVuSans-105"/>
      <use x="91.259766" xlink:href="#DejaVuSans-103"/>
      <use x="154.736328" xlink:href="#DejaVuSans-110"/>
      <use x="218.115234" xlink:href="#DejaVuSans-97"/>
      <use x="279.394531" xlink:href="#DejaVuSans-108"/>
      <use x="307.177734" xlink:href="#DejaVuSans-32"/>
      <use x="338.964844" xlink:href="#DejaVuSans-105"/>
      <use x="366.748047" xlink:href="#DejaVuSans-110"/>
      <use x="430.126953" xlink:href="#DejaVuSans-116"/>
      <use x="469.335938" xlink:href="#DejaVuSans-101"/>
      <use x="530.859375" xlink:href="#DejaVuSans-110"/>
      <use x="594.238281" xlink:href="#DejaVuSans-115"/>
      <use x="646.337891" xlink:href="#DejaVuSans-105"/>
      <use x="674.121094" xlink:href="#DejaVuSans-116"/>
      <use x="713.330078" xlink:href="#DejaVuSans-121"/>
     </g>
    </g>
   </g>
  </g>
 </g>
 <defs>
  <clipPath id="p03add05728">
   <rect height="87.4" width="540.4" x="24.8" y="10.8"/>
  </clipPath>
 </defs>
</svg>
